<?xml version="1.0" encoding="UTF-8"?><svg xmlns="http://www.w3.org/2000/svg" viewBox="0 0 625.08 189.7"><defs><style>.d{fill:#1e2124;}.e{opacity:.3;stroke-width:.5px;}.e,.f{fill:#fff;}.e,.f,.g,.h{stroke:#1e2124;stroke-miterlimit:10;}.f,.h{stroke-width:.5px;}.g{stroke-width:.25px;}.g,.h{fill:none;}</style></defs><g id="a"/><g id="b"><g id="c"><g><rect class="f" x=".25" y=".25" width="624.58" height="189.2"/><g><polygon class="h" points="312.72 32.3 204.01 95.06 312.72 157.83 421.43 95.06 312.72 32.3"/><line class="g" x1="294.6" y1="147.37" x2="403.31" y2="84.6"/><line class="g" x1="276.48" y1="136.9" x2="385.19" y2="74.14"/><line class="g" x1="258.37" y1="126.44" x2="367.08" y2="63.68"/><line class="g" x1="240.25" y1="115.98" x2="348.96" y2="53.22"/><line class="g" x1="222.13" y1="105.52" x2="330.84" y2="42.76"/><line class="g" x1="330.84" y1="147.37" x2="222.13" y2="84.6"/><line class="g" x1="348.96" y1="136.9" x2="240.25" y2="74.14"/><line class="g" x1="367.08" y1="126.44" x2="258.37" y2="63.68"/><line class="g" x1="385.19" y1="115.98" x2="276.48" y2="53.22"/><line class="g" x1="403.31" y1="105.52" x2="294.6" y2="42.76"/><ellipse class="d" cx="312.72" cy="147.37" rx="3.16" ry="1.82"/><ellipse class="d" cx="330.84" cy="136.9" rx="3.16" ry="1.82"/><ellipse class="d" cx="330.84" cy="115.98" rx="3.16" ry="1.82"/><ellipse class="d" cx="367.08" cy="115.98" rx="3.16" ry="1.82"/><ellipse class="d" cx="330.84" cy="95.06" rx="3.16" ry="1.82"/><ellipse class="d" cx="367.08" cy="95.06" rx="3.16" ry="1.82"/><ellipse class="d" cx="403.31" cy="95.06" rx="3.16" ry="1.82"/><ellipse class="d" cx="330.84" cy="74.14" rx="3.16" ry="1.82"/><ellipse class="d" cx="367.08" cy="74.14" rx="3.16" ry="1.82"/><ellipse class="d" cx="330.84" cy="53.22" rx="3.16" ry="1.82"/><ellipse class="d" cx="294.6" cy="136.9" rx="3.16" ry="1.82"/><ellipse class="d" cx="294.6" cy="115.98" rx="3.16" ry="1.82"/><ellipse class="d" cx="294.6" cy="95.06" rx="3.16" ry="1.82"/><ellipse class="d" cx="258.37" cy="95.06" rx="3.16" ry="1.82"/><ellipse class="d" cx="222.13" cy="95.06" rx="3.16" ry="1.82"/><ellipse class="d" cx="294.6" cy="74.14" rx="3.16" ry="1.82"/><ellipse class="d" cx="258.37" cy="115.98" rx="3.16" ry="1.82"/><ellipse class="d" cx="258.37" cy="74.14" rx="3.16" ry="1.82"/><ellipse class="d" cx="294.6" cy="53.22" rx="3.16" ry="1.82"/><ellipse class="d" cx="312.72" cy="126.44" rx="3.16" ry="1.82"/><ellipse class="d" cx="312.72" cy="105.52" rx="3.16" ry="1.82"/><ellipse class="d" cx="312.72" cy="84.6" rx="3.16" ry="1.82"/><ellipse class="d" cx="312.72" cy="63.68" rx="3.16" ry="1.82"/><ellipse class="d" cx="312.72" cy="42.76" rx="3.16" ry="1.82"/><ellipse class="d" cx="348.96" cy="126.44" rx="3.16" ry="1.82"/><ellipse class="d" cx="348.96" cy="105.52" rx="3.16" ry="1.82"/><ellipse class="d" cx="348.96" cy="84.6" rx="3.16" ry="1.82"/><ellipse class="d" cx="348.96" cy="63.68" rx="3.16" ry="1.82"/><ellipse class="d" cx="276.48" cy="126.44" rx="3.16" ry="1.82"/><ellipse class="d" cx="276.48" cy="105.52" rx="3.16" ry="1.82"/><ellipse class="d" cx="276.48" cy="84.6" rx="3.16" ry="1.82"/><ellipse class="d" cx="240.25" cy="105.52" rx="3.16" ry="1.82"/><ellipse class="d" cx="240.25" cy="84.6" rx="3.16" ry="1.82"/><ellipse class="d" cx="385.22" cy="105.52" rx="3.16" ry="1.82"/><ellipse class="d" cx="385.22" cy="84.6" rx="3.16" ry="1.82"/><ellipse class="d" cx="276.48" cy="63.68" rx="3.16" ry="1.82"/></g><polygon class="e" points="421.5 178.83 403.11 189.45 221.96 189.45 203.57 178.83 276.34 136.82 294.45 126.36 312.54 115.92 312.68 116 330.8 126.47 348.92 136.93 421.5 178.83"/><polygon class="e" points="421.5 10.86 348.54 52.98 330.43 63.44 312.54 73.77 294.83 63.55 276.71 53.09 203.57 10.86 221.95 .25 403.13 .25 421.5 10.86"/></g></g></g></svg>