<?xml version="1.0" encoding="UTF-8"?><svg xmlns="http://www.w3.org/2000/svg" viewBox="0 0 625.08 189.7"><defs><style>.d{opacity:.3;}.d,.e{fill:#fff;}.d,.e,.f,.g,.h{stroke-width:.5px;}.d,.e,.i,.g,.h{stroke-miterlimit:10;}.d,.e,.g{stroke:#1e2124;}.f{stroke-linecap:round;stroke-linejoin:round;}.f,.i,.g,.h{fill:none;}.f,.i,.h{stroke:#000;}.i{stroke-width:.25px;}</style></defs><g id="a"/><g id="b"><g id="c"><g><rect class="e" x=".25" y=".25" width="624.58" height="189.2"/><polygon class="d" points="421.59 178.9 403.31 189.45 221.76 189.45 203.49 178.9 276.28 136.88 303.87 120.95 306.12 119.65 307.99 118.57 310.58 117.07 310.63 117.04 312.54 115.94 313.02 116.22 320.71 120.66 348.8 136.88 421.59 178.9"/><polygon class="e" points="421.59 94.85 312.54 157.81 203.49 94.85 312.54 31.89 421.59 94.85"/><polygon class="d" points="421.59 10.79 348.8 52.82 312.54 73.76 276.28 52.82 203.49 10.79 221.75 .25 403.33 .25 421.59 10.79"/><g><path class="i" d="M394.49,85.82l-46.91,27.09c-.61,.35-1.68,.31-2.39-.1l-10.44-6.03c-.71-.41-.78-1.02-.17-1.38l46.91-27.09c.61-.35,1.68-.31,2.39,.1l10.44,6.03c.71,.41,.78,1.02,.17,1.38Z"/><g><path d="M338.1,106.19c-.32-.18-.68-.19-.96-.03-.29,.17-.28,.38,.04,.56,.31,.18,.67,.19,.96,.02,.29-.17,.27-.37-.04-.55Zm-.09,.48c-.19,.1-.42,.11-.61,0l-.14-.08c-.18-.11-.19-.24,0-.35,.18-.11,.41-.12,.61-.01l.13,.08c.18,.11,.19,.24,0,.36Z"/><path d="M339.19,105.72c-.06-.03-.12-.04-.2,0l-.04,.03h0c.05-.08,.02-.16-.09-.23-.18-.1-.38-.11-.58,0l-.47,.28,.97,.56,.15-.09-.37-.21,.47-.27,.37,.21,.14-.08-.34-.2Zm-.47,.1l-.29,.17-.36-.2,.3-.18c.1-.05,.2-.06,.3-.01l.08,.05c.08,.04,.08,.11-.03,.17Z"/><path d="M340.09,105.04c-.31-.18-.6-.22-.9-.05l-.4,.23,.97,.57,.4-.24c.3-.16,.24-.33-.07-.51Zm-.06,.44l-.25,.15-.72-.41,.26-.15c.17-.1,.33-.11,.54,.01l.16,.09c.19,.11,.19,.21,.01,.31Z"/><path d="M341.29,104.75l-.51,.3-.31-.18,.45-.26-.13-.07-.44,.26-.28-.16,.51-.3-.13-.07-.66,.38,.97,.56,.66-.38-.13-.08Z"/><path d="M342.05,104.07c-.06-.03-.13-.04-.2,0l-.05,.03h-.01c.06-.08,.03-.16-.09-.23-.17-.1-.38-.11-.57,0l-.48,.28,.98,.56,.14-.08-.37-.22,.48-.27,.36,.21,.15-.08-.34-.2Zm-.47,.1l-.3,.17-.36-.2,.3-.17c.1-.06,.21-.07,.3-.02l.08,.05c.09,.05,.09,.11-.02,.17Z"/><path d="M343.14,103.68l-.51,.3-.31-.18,.45-.26-.12-.07-.45,.26-.28-.16,.51-.3-.13-.07-.66,.38,.98,.56,.65-.38-.13-.08Z"/><path d="M343.81,102.89c-.31-.18-.6-.22-.9-.04l-.4,.23,.97,.56,.4-.23c.29-.17,.24-.34-.07-.52Zm-.06,.45l-.25,.14-.72-.41,.25-.15c.18-.1,.34-.11,.55,.01l.16,.09c.19,.11,.19,.21,0,.32Z"/></g><g><path d="M354.9,96.89l-.25,.15-.72-.41,.26-.15-.13-.07-.66,.38,.13,.07,.26-.14,.71,.41-.26,.15,.13,.07,.66-.38-.13-.08Z"/><path d="M356.07,96.37l-.97-.56-.15,.08,.49,.29,.3,.16-1.27-.17-.18,.1,.98,.56,.14-.08-.5-.29-.28-.16,1.26,.17,.18-.1Z"/><path d="M357.04,95.48c-.13-.07-.29-.09-.51-.01l-.21,.08c-.07,.03-.2,.07-.31,.01-.08-.05-.07-.12,.06-.19,.12-.07,.26-.09,.38-.03l.14-.08c-.18-.1-.43-.08-.64,.04-.21,.12-.24,.26-.07,.36,.2,.12,.43,.03,.53-.01l.21-.07s.17-.07,.29,0c.1,.06,.07,.14-.06,.22-.14,.08-.3,.1-.44,.02l-.15,.09c.17,.1,.45,.11,.7-.04,.23-.13,.27-.28,.08-.39Z"/><path d="M356.95,94.89l.29-.17-.12-.08-.74,.43,.13,.07,.3-.17,.84,.49,.14-.09-.84-.48Z"/><path d="M358.54,94.39c-.32-.19-.67-.19-.96-.03-.29,.17-.28,.37,.04,.56,.31,.18,.67,.18,.96,.02,.29-.17,.27-.37-.04-.55Zm-.09,.47c-.19,.11-.42,.12-.61,.01l-.14-.08c-.18-.11-.19-.24,0-.35,.18-.11,.41-.12,.61-.01l.13,.08c.18,.11,.19,.24,0,.35Z"/><path d="M359.72,93.88l-.15,.09c.1,.09,.08,.2-.07,.29-.18,.1-.41,.1-.58,0l-.16-.09c-.18-.11-.18-.24,0-.34,.16-.1,.34-.1,.49-.04l.15-.09c-.23-.11-.53-.09-.77,.05-.29,.17-.27,.37,.04,.55,.32,.18,.67,.19,.95,.03,.24-.14,.27-.31,.09-.45Z"/><path d="M361.03,93.51l-.92-.11-.07-.45-.17,.1,.09,.58-.54-.32-.15,.09,.98,.56,.14-.08-.22-.13-.04-.23,.72,.09,.18-.1Z"/></g><g><path d="M371.05,87.58l-.52,.29-.31-.18,.45-.26-.12-.07-.45,.26-.28-.16,.51-.3-.13-.07-.65,.38,.97,.56,.65-.38-.12-.07Z"/><path d="M371.3,87.01l-.18-.45-.17,.1,.07,.18,.09,.18h-.01l-.3-.04-.32-.05-.17,.1,.77,.11,.19,.45,.17-.1-.06-.15-.09-.21h.01l.33,.05,.29,.04,.17-.1-.79-.11Z"/><path d="M372.3,86.24c-.19-.11-.41-.12-.62,0l-.43,.25,.97,.56,.14-.09-.34-.2,.28-.16c.21-.12,.2-.25,0-.36Zm-.13,.29l-.28,.16-.37-.21,.29-.17c.09-.05,.2-.06,.29-.01l.09,.05c.09,.05,.09,.12-.02,.18Z"/><path d="M373.65,86.07l-.51,.29-.31-.18,.45-.25-.12-.08-.45,.26-.28-.16,.51-.29-.13-.08-.65,.38,.97,.56,.65-.38-.13-.07Z"/><path d="M374.44,85.38l-.15,.09c.1,.09,.08,.2-.07,.29-.18,.1-.41,.1-.58,0l-.16-.09c-.18-.11-.18-.24,0-.34,.16-.1,.34-.1,.49-.04l.15-.09c-.23-.1-.53-.09-.77,.05-.29,.17-.27,.37,.04,.55,.32,.18,.67,.19,.95,.03,.24-.14,.27-.31,.09-.45Z"/><path d="M374.41,84.81l.29-.17-.13-.08-.73,.43,.13,.07,.3-.17,.84,.49,.14-.08-.84-.49Z"/><path d="M376.18,84.61l-.51,.29-.31-.18,.45-.25-.12-.08-.45,.26-.28-.16,.51-.29-.13-.08-.66,.38,.98,.56,.65-.38-.13-.07Z"/><path d="M376.85,83.81c-.31-.17-.6-.21-.9-.04l-.4,.23,.97,.56,.4-.23c.29-.17,.24-.34-.07-.52Zm-.06,.45l-.25,.15-.72-.42,.25-.14c.17-.1,.34-.11,.54,0l.17,.1c.19,.11,.19,.2,0,.31Z"/></g><g><path d="M344.04,109.47l-.28,.17c.25,.15,.2,.37-.13,.56l-.09,.06,.23,.14,.63-.37,1.85,1.07,.31-.17-2.52-1.46Z"/><path d="M348.21,109.18c-.26-.15-.62-.23-1.02-.12h-.02c.13-.22,.04-.41-.2-.55-.39-.23-.97-.21-1.42,.06-.48,.28-.48,.63-.04,.89l.04,.02,.3-.17-.03-.02c-.29-.17-.31-.39-.01-.56,.26-.15,.59-.18,.83-.04l.07,.04c.24,.14,.22,.33-.09,.51l-.17,.1,.26,.15,.18-.1c.31-.19,.65-.23,.92-.08l.13,.08c.24,.14,.2,.35-.1,.53-.32,.18-.68,.18-1,0l-.04-.03-.32,.19,.06,.03c.45,.26,1.07,.25,1.57-.04,.49-.29,.53-.64,.1-.89Z"/><path d="M349.78,109.18l-.53-.31-.39,.23,.43,.25,.21-.13,.1,.06c.12,.07,.22,.16,0,.28l.15,.09c.26-.15,.29-.32,.03-.47Z"/><path d="M351.08,107.56c-.28-.16-.67-.2-.99-.11l-.03-.02c.15-.18,.08-.41-.2-.57-.4-.23-1.01-.2-1.55,.11-.52,.3-.61,.66-.19,.91,.27,.15,.66,.19,.99,.11h.03c-.16,.19-.1,.42,.19,.58,.4,.24,1.02,.2,1.56-.1,.52-.31,.61-.67,.19-.91Zm-2.55,.18l-.1-.05c-.26-.16-.18-.37,.15-.56,.34-.19,.7-.24,.96-.08l.1,.05c.26,.15,.17,.35-.17,.54-.34,.2-.68,.25-.94,.1Zm2.09,.57c-.34,.19-.7,.23-.97,.08l-.09-.05c-.26-.16-.17-.36,.16-.55,.34-.19,.68-.25,.95-.09l.09,.05c.27,.15,.2,.36-.14,.56Z"/><path d="M353.05,106.38c-.26-.15-.62-.22-1.02-.11h-.02c.13-.22,.04-.41-.2-.55-.4-.23-.97-.21-1.42,.05-.49,.28-.48,.64-.04,.9l.04,.02,.3-.17-.03-.02c-.3-.17-.31-.39,0-.57,.26-.14,.59-.17,.83-.04l.07,.05c.24,.13,.22,.33-.09,.51l-.17,.1,.26,.15,.17-.11c.32-.18,.66-.22,.93-.07l.13,.08c.24,.14,.2,.35-.11,.52-.31,.19-.67,.19-.99,0l-.04-.02-.32,.18,.06,.04c.45,.26,1.07,.24,1.57-.04,.49-.29,.53-.65,.1-.9Z"/><path d="M354.66,104.8c-.87-.51-1.57-.58-2.16-.25-.58,.34-.45,.75,.42,1.25,.88,.5,1.58,.58,2.16,.24,.59-.33,.45-.74-.42-1.24Zm.15,1.09c-.32,.18-.74,.18-1.17-.07l-.75-.43c-.44-.25-.43-.5-.12-.68,.3-.17,.73-.19,1.17,.07l.76,.43c.44,.26,.41,.5,.11,.68Z"/></g><g><path d="M361.63,99.57l-.22-.12-1.71,.98,.73,.42,.27-.15-.47-.26,1.08-.62c.19,.65,.67,1.37,1.26,1.86l.33-.19c-.61-.52-1.1-1.27-1.27-1.92Z"/><path d="M365.18,99.38c-.26-.15-.62-.22-1.02-.11l-.02-.02c.13-.21,.04-.4-.2-.54-.39-.22-.97-.2-1.42,.06-.48,.28-.48,.63-.04,.89l.04,.02,.3-.17-.03-.02c-.29-.17-.31-.39,0-.56,.25-.15,.58-.18,.82-.04l.07,.04c.24,.14,.22,.33-.09,.51l-.17,.1,.26,.15,.18-.1c.31-.18,.65-.23,.92-.07l.13,.07c.24,.14,.2,.35-.11,.53s-.67,.18-.99,0l-.04-.02-.32,.18,.06,.03c.45,.26,1.07,.25,1.57-.04,.49-.28,.53-.64,.1-.89Z"/><path d="M366.75,99.38l-.53-.3-.39,.22,.43,.25,.21-.12,.1,.06c.12,.06,.22,.15,0,.28l.15,.08c.26-.14,.29-.32,.03-.47Z"/><path d="M368.36,98.02l-.82,.47c-.12,.07-.24,.15-.36,.23l-.04-.94c0-.18,0-.42-.36-.62-.45-.26-1.06-.24-1.55,.04-.5,.29-.52,.66,0,.95l.3-.17-.06-.03c-.29-.17-.29-.4,.02-.58,.26-.15,.65-.2,.9-.06l.14,.09c.13,.07,.19,.18,.2,.41l.05,1.18,.23,.13,1.63-.94-.28-.16Z"/><path d="M369.55,96.18c-.72-.42-1.49-.61-2.19-.21-.54,.31-.51,.7,0,1s1.14,.3,1.6,.03c.32-.18,.42-.4,.29-.61h.02c.61,.32,.88,.64,.38,.93-.25,.14-.56,.2-.86,.07l-.31,.18c.43,.2,.96,.18,1.43-.09,.7-.41,.4-.86-.37-1.3Zm-.77,.63c-.27,.16-.67,.21-1.01,.02l-.2-.11c-.29-.17-.24-.42,.06-.59,.3-.17,.72-.2,1.01-.03l.2,.11c.3,.18,.25,.43-.06,.6Z"/><path d="M371.67,94.95c-.72-.42-1.49-.61-2.19-.2-.53,.31-.5,.7,0,1,.53,.3,1.14,.29,1.6,.03,.32-.19,.42-.4,.29-.61h.02c.61,.32,.88,.64,.38,.92-.25,.15-.56,.21-.86,.07l-.31,.19c.44,.2,.97,.17,1.43-.1,.7-.4,.4-.85-.37-1.3Zm-.76,.64c-.28,.16-.68,.21-1.02,.01l-.2-.11c-.29-.17-.24-.41,.06-.58,.3-.17,.72-.2,1.01-.04l.2,.12c.3,.17,.25,.42-.05,.6Z"/></g><g><path d="M379.5,91.16c-.28-.17-.67-.21-.99-.12h-.03c.15-.19,.08-.42-.2-.59-.4-.23-1.02-.19-1.55,.11-.52,.31-.61,.67-.19,.91,.27,.16,.66,.2,.98,.11l.03,.02c-.15,.17-.09,.4,.2,.57,.4,.23,1.02,.2,1.55-.11,.53-.3,.61-.66,.2-.9Zm-2.56,.17l-.09-.05c-.26-.15-.19-.36,.15-.56,.33-.19,.7-.23,.96-.08l.09,.05c.26,.15,.18,.35-.16,.55-.34,.19-.69,.24-.95,.09Zm2.1,.57c-.34,.2-.71,.24-.97,.08l-.09-.05c-.27-.15-.17-.35,.16-.54,.34-.2,.68-.25,.95-.1l.09,.05c.26,.16,.2,.36-.14,.56Z"/><path d="M379.82,89.07l-.22-.13-1.71,.99,.73,.42,.26-.15-.46-.26,1.08-.62c.19,.65,.67,1.37,1.26,1.86l.33-.19c-.61-.52-1.1-1.27-1.27-1.92Z"/><path d="M382.87,90.07l-.52-.3-.39,.22,.42,.25,.22-.12,.1,.06c.11,.06,.21,.15,0,.28l.15,.08c.25-.14,.28-.32,.02-.47Z"/><path d="M381.5,87.84l-.28,.17c.25,.15,.2,.38-.12,.57l-.1,.05,.24,.14,.63-.37,1.85,1.07,.3-.17-2.52-1.46Z"/><path d="M386.08,87.79l-.82,.47c-.12,.07-.24,.15-.36,.23l-.04-.94c-.01-.18-.01-.42-.36-.62-.45-.26-1.06-.24-1.55,.04-.5,.29-.52,.66,0,.95l.3-.17-.06-.03c-.29-.17-.29-.4,.03-.58,.25-.15,.64-.2,.89-.06l.14,.09c.13,.07,.19,.18,.2,.41l.05,1.18,.22,.13,1.64-.94-.28-.16Z"/><path d="M387.27,85.94c-.72-.41-1.49-.6-2.19-.2-.54,.31-.51,.7,.01,1s1.14,.3,1.6,.03c.32-.18,.42-.4,.29-.61h.02c.61,.32,.88,.64,.38,.93-.25,.14-.56,.2-.86,.07l-.31,.18c.43,.2,.96,.17,1.43-.09,.7-.41,.4-.86-.37-1.31Zm-.77,.64c-.27,.16-.67,.21-1.01,.02l-.2-.12c-.29-.16-.24-.41,.06-.58,.3-.17,.72-.2,1.01-.03l.2,.11c.3,.18,.25,.43-.06,.6Z"/></g><line class="i" x1="349.8" y1="96.56" x2="362.9" y2="104.12"/><line class="i" x1="366.18" y1="87.1" x2="379.27" y2="94.66"/></g><path class="i" d="M410.27,94.93l-46.91,27.09c-.61,.35-1.68,.31-2.39-.1l-10.44-6.03c-.71-.41-.78-1.02-.17-1.38l46.91-27.09c.61-.35,1.68-.31,2.39,.1l10.44,6.03c.71,.41,.78,1.02,.17,1.38Z"/><g><path d="M354.04,115.61l-.52,.3-.31-.18,.45-.26-.12-.07-.45,.26-.28-.17,.51-.29-.13-.08-.65,.38,.97,.56,.66-.38-.13-.07Z"/><path d="M354.59,115.01l-.12-.08-.45,.26-.35-.19,.51-.29-.13-.08-.65,.38,.97,.56,.15-.09-.38-.21,.45-.26Z"/><path d="M355.41,114.53l-.12-.07-.45,.26-.35-.2,.51-.29-.13-.07-.65,.37,.97,.56,.15-.08-.38-.22,.45-.26Z"/><path d="M356.52,114.17l-.26,.15-.71-.41,.26-.15-.13-.07-.66,.38,.13,.07,.26-.14,.71,.41-.26,.15,.13,.07,.66-.38-.13-.08Z"/><path d="M357.37,113.45l-.15,.09c.1,.09,.07,.21-.07,.29-.18,.1-.42,.1-.59,.01l-.16-.1c-.18-.1-.17-.23,0-.34,.16-.09,.35-.1,.49-.04l.16-.09c-.24-.1-.53-.09-.78,.05-.29,.17-.27,.38,.05,.56,.31,.18,.66,.19,.94,.03,.24-.14,.28-.31,.1-.46Z"/><path d="M358.4,113.09l-.26,.15-.71-.41,.26-.15-.13-.08-.67,.39,.13,.07,.26-.15,.72,.41-.26,.15,.13,.08,.66-.38-.13-.08Z"/><path d="M359.29,112.58l-.51,.29-.31-.18,.44-.26-.12-.07-.44,.26-.29-.16,.52-.3-.13-.07-.66,.38,.97,.56,.66-.38-.13-.07Z"/><path d="M360.43,112.07l-.97-.56-.15,.08,.49,.28,.29,.17-1.26-.17-.18,.1,.98,.56,.14-.08-.5-.29-.28-.16,1.26,.17,.18-.1Z"/><path d="M361.17,111.26l-.15,.09c.1,.09,.07,.2-.07,.29-.18,.1-.42,.1-.58,0l-.16-.09c-.19-.11-.18-.24,0-.34,.16-.1,.35-.1,.5-.04l.15-.09c-.23-.11-.53-.09-.77,.05-.29,.17-.27,.37,.04,.55,.31,.18,.66,.19,.94,.03,.24-.14,.28-.31,.1-.45Z"/><path d="M361.8,110.93l-.05-.38-.32-.18-.14,.08,.28,.16,.04,.29h-.01l-.5-.02-.28-.16-.14,.08,.31,.19,.67,.03,.29,.17,.15-.09-.3-.17Z"/></g><g><path d="M370.59,105.81c-.06-.04-.12-.05-.2-.01l-.05,.03h-.01c.06-.07,.03-.15-.09-.22-.17-.1-.38-.11-.57,0l-.47,.27,.97,.57,.14-.09-.36-.21,.47-.27,.36,.21,.15-.08-.34-.2Zm-.47,.1l-.3,.17-.35-.21,.29-.17c.1-.06,.21-.07,.3-.01l.09,.04c.08,.05,.08,.12-.03,.18Z"/><path d="M371.69,105.42l-.52,.3-.31-.18,.45-.26-.12-.07-.45,.25-.28-.16,.51-.29-.13-.08-.65,.38,.97,.56,.66-.38-.13-.07Z"/><path d="M372.48,104.96l-.44,.26-.85-.49-.14,.08,.97,.57,.59-.34-.13-.08Z"/><path d="M373.3,104.49l-.26,.15-.71-.41,.25-.15-.12-.08-.67,.39,.13,.07,.26-.15,.71,.41-.25,.15,.13,.08,.66-.39-.13-.07Z"/><path d="M373.82,103.65l-.7-.03-.12,.07,.06,.4,.6,.34,.14-.08-.22-.13,.46-.27,.23,.13,.14-.09-.59-.34Zm-.36,.5l-.22-.12-.04-.29h0l.5,.02,.21,.12-.46,.27Z"/><path d="M375.17,103.26c-.12-.07-.26-.09-.4-.04h0c.05-.08,.02-.16-.08-.22-.15-.08-.34-.09-.52,.02l-.47,.27,.98,.56,.46-.27c.19-.11,.2-.23,.04-.32Zm-1.22,.01l.31-.18c.09-.05,.18-.05,.26-.01l.06,.04c.07,.04,.07,.1-.02,.15l-.31,.18-.3-.18Zm1.04,.25l-.3,.18-.32-.19,.32-.18c.09-.05,.19-.06,.28-.01l.06,.04c.08,.04,.07,.11-.04,.16Z"/><path d="M376.13,102.85l-.25,.15-.72-.41,.26-.15-.13-.08-.66,.39,.13,.07,.26-.15,.71,.41-.26,.15,.13,.08,.66-.38-.13-.08Z"/><path d="M376.96,102.38l-.45,.25-.84-.48-.14,.08,.97,.56,.59-.34-.13-.07Z"/><path d="M377.77,101.9l-.25,.15-.72-.41,.26-.15-.13-.07-.66,.38,.13,.07,.26-.15,.71,.42-.26,.15,.13,.07,.66-.38-.13-.08Z"/><path d="M377.61,101.17l.3-.17-.13-.07-.73,.42,.13,.08,.29-.17,.84,.48,.15-.08-.85-.49Z"/><path d="M379,101l-.05-.38-.32-.18-.15,.08,.29,.16,.04,.29h-.51l-.28-.18-.15,.09,.32,.18,.66,.03,.3,.17,.15-.08-.3-.18Z"/></g><g><path d="M386.7,96.57c-.12-.07-.29-.09-.51,0l-.21,.08c-.07,.03-.2,.07-.31,.01-.08-.05-.07-.12,.06-.19,.12-.07,.26-.09,.38-.03l.15-.08c-.19-.1-.44-.08-.65,.04-.21,.12-.24,.26-.07,.36,.2,.12,.43,.03,.53-.01l.21-.07s.17-.07,.29,0c.1,.06,.07,.14-.06,.22-.14,.08-.3,.1-.44,.03l-.15,.08c.17,.1,.45,.11,.7-.04,.23-.13,.27-.28,.08-.39Z"/><path d="M387.35,95.84l-.7-.03-.12,.07,.06,.4,.6,.34,.14-.08-.22-.13,.46-.27,.23,.13,.14-.09-.59-.34Zm-.37,.5l-.21-.13-.04-.29h0l.5,.02,.21,.13-.47,.27Z"/><path d="M387.67,95.37l.3-.17-.13-.08-.74,.42,.13,.08,.3-.17,.84,.49,.15-.09-.85-.48Z"/><path d="M389.52,95.13l-.26,.14-.71-.41,.25-.15-.13-.07-.66,.38,.13,.08,.26-.15,.71,.41-.25,.15,.13,.07,.66-.38-.13-.07Z"/><path d="M390.29,94.5c-.13-.07-.29-.09-.51-.01l-.21,.08c-.08,.02-.2,.07-.31,.01-.08-.05-.07-.12,.06-.19,.12-.07,.26-.09,.37-.03l.15-.08c-.18-.11-.43-.08-.64,.04s-.24,.26-.07,.36c.2,.12,.43,.03,.53-.01l.2-.07c.06-.02,.18-.07,.29,0,.11,.06,.08,.14-.05,.22-.14,.08-.3,.1-.44,.02l-.15,.09c.17,.1,.45,.11,.7-.04,.23-.13,.27-.28,.08-.39Z"/><path d="M391,93.99l-.12-.08-.45,.26-.35-.2,.51-.29-.13-.07-.65,.37,.97,.57,.15-.09-.38-.21,.45-.26Z"/><path d="M391.76,93.29l-.7-.03-.12,.07,.06,.4,.6,.34,.14-.08-.22-.13,.46-.27,.23,.13,.14-.08-.59-.35Zm-.37,.5l-.21-.12-.05-.29h.02l.5,.02,.21,.12-.47,.27Z"/><path d="M393.09,92.83l-.15,.09c.1,.09,.08,.2-.07,.29-.18,.1-.42,.1-.58,0l-.16-.09c-.19-.11-.18-.24,0-.34,.16-.1,.35-.1,.5-.04l.15-.09c-.23-.11-.53-.09-.77,.05-.29,.17-.27,.37,.04,.55,.31,.18,.67,.19,.95,.03,.24-.14,.27-.31,.09-.45Z"/><path d="M393.06,92.26l.29-.17-.13-.08-.73,.42,.13,.08,.29-.17,.85,.49,.14-.09-.84-.48Z"/><path d="M394.9,92.02l-.26,.14-.71-.41,.26-.15-.13-.07-.66,.38,.13,.08,.26-.15,.71,.41-.26,.15,.13,.07,.66-.38-.13-.07Z"/><path d="M395.63,91.19c-.32-.18-.68-.19-.96-.03-.29,.17-.28,.38,.04,.56,.31,.18,.67,.19,.96,.02,.28-.17,.27-.37-.04-.55Zm-.09,.48c-.19,.1-.42,.11-.61,0l-.14-.08c-.18-.11-.19-.24,.01-.35,.18-.11,.41-.12,.6-.01l.14,.08c.18,.11,.19,.24,0,.36Z"/><path d="M396.92,91l.18-.1-.97-.57-.15,.09,.49,.28,.31,.16h-.01l-1.27-.16-.17,.1,.97,.56,.14-.09-.5-.28-.29-.16h0l1.26,.17Z"/></g><g><path d="M362.32,117.27l-2.77-.14-.44,.26,.24,1.6,2.39,1.38,.49-.28-.93-.54,2.01-1.16,.93,.54,.48-.28-2.4-1.38Zm-1.44,2.04l-.91-.53-.21-1.25,.04-.03,2.17,.13,.92,.52-2.01,1.16Z"/><path d="M365.63,116.35l1.06-.61-.39-.23-1.06,.62-1.09-.64-.42,.24,1.1,.63-1.06,.62,.39,.22,1.06-.61,1.15,.66,.41-.23-1.15-.67Z"/></g><g><path d="M380.4,108.41c-.49-.28-1.05-.37-1.62-.17l-.04-.03c.22-.29,.09-.59-.32-.83-.59-.34-1.33-.37-2.05,.04l-1.84,1.07,3.9,2.25,1.8-1.04c.76-.44,.79-.93,.17-1.29Zm-4.98,.04l1.33-.77c.38-.22,.8-.23,1.1-.05l.27,.16c.33,.18,.3,.43-.07,.64l-1.33,.77-1.3-.75Zm4.37,1.03l-1.29,.74-1.37-.79,1.37-.79c.38-.22,.83-.26,1.19-.05l.28,.16c.33,.19,.26,.47-.18,.73Z"/><path d="M382.13,106.83l1.06-.61-.39-.23-1.06,.61-1.1-.63-.41,.24,1.1,.63-1.06,.61,.39,.23,1.06-.61,1.15,.66,.41-.24-1.15-.66Z"/></g><g><path d="M395.11,98.34l-2.78-.13-.44,.25,.24,1.6,2.4,1.38,.48-.28-.93-.53,2.01-1.16,.93,.53,.48-.27-2.39-1.39Zm-1.44,2.04l-.92-.52-.21-1.26,.05-.02,2.17,.12,.91,.53-2,1.15Z"/><path d="M398.4,97.17l-1.81,1.05,.31,.18,1.82-1.05-.32-.18Z"/></g><line class="i" x1="365.58" y1="105.66" x2="378.67" y2="113.22"/><line class="i" x1="381.95" y1="96.21" x2="395.05" y2="103.77"/><g><line class="g" x1="220.96" y1="94.57" x2="226.56" y2="91.33"/><line class="g" x1="226.15" y1="97.57" x2="244.32" y2="87.08"/><line class="g" x1="231.35" y1="100.57" x2="243.02" y2="93.83"/></g><path class="h" d="M328.37,99.34c-.61,1.5-1.83,2.42-2.74,2.06-.09-.04-.18-.08-.26-.16-.6-.44-.78-1.5-.48-2.64,.13-.33,.25-.66,.36-.97t.01-.02c.53-1.03,1.36-1.71,2.1-1.73h.01c.15,0,.29,.03,.44,.08,.91,.37,1.16,1.88,.56,3.38Z"/><path class="h" d="M324.38,97.79c.61-1.5,1.83-2.42,2.74-2.07,.08,.04,.17,.08,.24,.15-.74,.02-1.57,.7-2.1,1.73t-.01,.02c-.06,.13-.13,.26-.18,.4-.07,.19-.14,.39-.18,.57-.3,1.14-.11,2.2,.48,2.64h0c-.15,.01-.29-.01-.42-.07-.92-.36-1.17-1.87-.57-3.37Z"/><path class="h" d="M321.4,96.51c-.25,.51-.93,1.82-1.84,3.57l-2.04-1.84-1.34-1.2-5.99-5.38c1.16-.37,2.37-1.62,3.06-3.35,.54-1.36,.65-2.73,.38-3.76l12.19,7.36c-2.3,.03-3.44,2.64-4.42,4.59Z"/><path class="h" d="M317.51,125.24c-.88,2.19-2.67,3.55-4.01,3.02-.18-.07-.34-.18-.49-.31-.92-.82-1.1-2.74-.33-4.64,.82-2.06,2.45-3.38,3.75-3.09,.08,.02,.17,.04,.25,.07,1.34,.53,1.7,2.75,.84,4.95Z"/><path class="h" d="M311.57,122.74c.9-2.27,2.75-3.65,4.11-3.1,.29,.11,.54,.31,.74,.57-1.29-.29-2.92,1.03-3.75,3.09-.76,1.9-.58,3.81,.33,4.64-.21,0-.4-.04-.58-.11-1.37-.54-1.75-2.82-.86-5.09Z"/><path class="h" d="M329.05,92.98c-.17-.08-.33-.14-.49-.19-.12-.04-.23-.07-.34-.09-.07-.02-.13-.03-.2-.04-.2-.04-.39-.05-.57-.05-.15,0-.3,.01-.44,.04h-.03c-.14,.02-.27,.05-.4,.1-.04,0-.07,.01-.1,.02-.04,.02-.08,.04-.12,.07t-.02,.01c-.09,.03-.19,.08-.28,.13-.59,.31-1.08,.81-1.48,1.37-.48,.67-.88,1.45-1.25,2.19-.12,.24-.23,.46-.32,.65-.88,1.76-6.47,12.54-9.99,19.03-.2,.38-.4,.74-.59,1.09-.14,.24-.26,.48-.38,.7-.62,1.12-1.12,2.01-1.45,2.55-1.85,3.02-2.51,7.5,.26,9.38,.42,.29,.91,.51,1.48,.66,3.54,.92,5.17-2.25,6.29-4.97,.28-.69,.54-1.34,.78-1.9,.32-.73,.76-1.78,1.3-3.07,1.46-3.54,3.63-8.94,6.01-14.9,3.12-7.79,4.76-11.57,2.33-12.78Zm-11.54,32.26c-.88,2.19-2.67,3.55-4.01,3.01-.18-.07-.35-.17-.49-.31-.21,0-.4-.04-.59-.12-1.36-.54-1.75-2.81-.85-5.08,.9-2.27,2.74-3.65,4.11-3.1,.29,.11,.54,.31,.74,.57,.09,.02,.17,.04,.25,.08,1.34,.53,1.71,2.74,.84,4.95Zm10.86-25.9c-.61,1.5-1.83,2.42-2.74,2.06-.09-.05-.17-.09-.26-.16h0c-.14,.01-.29-.01-.42-.07-.92-.36-1.17-1.87-.57-3.38,.61-1.5,1.83-2.42,2.74-2.06,.08,.04,.16,.08,.24,.14h0c.14,0,.29,.03,.43,.09,.91,.36,1.16,1.88,.57,3.38Z"/><path class="h" d="M308.84,91.64c-.08-.03-.16-.07-.23-.11l-.09-.05c-1.2-.8-1.48-3.04-.58-5.28,.96-2.42,2.93-3.92,4.41-3.33,.65,.26,1.09,.88,1.29,1.69,.27,1.03,.17,2.4-.38,3.76-.69,1.73-1.9,2.99-3.06,3.35-.47,.15-.94,.15-1.36-.02Z"/><path class="f" d="M329.05,92.98c-3.64-1.64-5.21,2.54-6.04,4.21-1.15,2.29-10.3,19.9-12.42,23.37-1.85,3.02-2.51,7.51,.26,9.39-.04-.01-.08-.02-.11-.03-1.62-.42-2.57-1.4-3.02-2.65-.48-1.31-.42-2.89,0-4.43h0v-.03l3.29-6.52v-.02h.01c2.5-4.56,6.27-11.78,8.54-16.18,.91-1.75,1.59-3.06,1.84-3.57,.98-1.95,2.12-4.56,4.42-4.59,.81-.06,3.23,.78,3.23,1.07Z"/><path class="h" d="M308.61,91.53c.07,.04,.15,.08,.23,.11l-.22-.1h-.01Z"/><path class="h" d="M318.65,130.28v.99l-10.92,5.56v-9.56c.45,1.25,1.4,2.23,3.02,2.65,.03,.01,.07,.02,.11,.03,.42,.28,.91,.5,1.48,.66,3.54,.92,5.17-2.26,6.29-4.97l.02,4.65Z"/><path class="h" d="M305.24,130.14v-4.41c0-.42,.03-.84,.07-1.23,.61-5.8,5.4-8.1,5.7-8.24v.02c-.88,1.61-1.6,2.88-2.03,3.58-.54,.89-.98,1.9-1.25,2.93v.02h-.01c-.42,1.55-.48,3.13,0,4.44v9.5h-.04l-2.44-1.25v-5.37Z"/><path class="h" d="M303.11,90.5v-5.48c3.22-.66,3.63,3.73,2.43,4.29-.23,.11-.49,.23-.74,.36-.64,.31-1.28,.64-1.69,.84Z"/><path class="h" d="M305.31,124.5c-.28-2.02,.41-4.43,1.53-6.28,1.66-2.7,7.61-14.07,10.68-19.99l2.04,1.84c-2.28,4.41-6.05,11.62-8.54,16.17h0s0,0-.01,.01c-.3,.14-5.1,2.44-5.7,8.24Z"/><path class="h" d="M305.24,126.74c-2.46-1.98-1.78-6.29,.01-9.19,1.64-2.68,7.48-13.82,10.58-19.8,.13-.24,.24-.48,.37-.71l1.34,1.2c-3.07,5.92-9.02,17.28-10.68,19.99-1.13,1.85-1.82,4.26-1.53,6.28-.04,.4-.07,.81-.07,1.23v1Z"/><path class="h" d="M311.8,138.6c-4.98,0-9.12-1.73-9.92-4h0c-.09-.27-.15-.53-.15-.81,0-.5,.17-.99,.47-1.44,.57-.87,1.64-1.63,3.04-2.2v5.37l2.44,1.25h.04v.06l10.93-5.56v-.99h0c1.25,.55,2.21,1.26,2.74,2.07,.31,.45,.47,.94,.47,1.44,0,.28-.04,.54-.14,.8h-.01c-.79,2.28-4.94,4.01-9.92,4.01Z"/><path class="h" d="M311.8,144.31c-6.76,0-12.24-2.74-12.24-6.13,0-.34,.06-.68,.18-1.01,.97,2.89,5.99,5.11,12.06,5.11,3.04,0,5.81-.55,7.95-1.47,2.14-.91,3.63-2.18,4.12-3.63,.11,.33,.17,.67,.17,1.01,0,3.39-5.47,6.13-12.24,6.13Z"/><path class="h" d="M303.11,82.11c.73-1.11,1.79-2.22,3.42-2.08l5.81,2.83c-1.47-.58-3.45,.91-4.41,3.33-.9,2.24-.62,4.48,.58,5.28l-3.72-1.82c.25-.13,.51-.24,.74-.36,1.2-.56,.78-4.95-2.43-4.29v-2.9Z"/><path class="h" d="M303.11,85.01v8.69c0,1.25-.84,2.36-2.04,2.71l-13.52,3.99v-1.42l12.58-6.32v-6.45l-2.06,1.01-10.53,5.2v-1.41l13.95-9.79c.21-.15,.44-.2,.67-.18,.5,.04,.94,.44,.94,1.01v2.96Z"/><path class="h" d="M321.86,135.4c0,2.65-4.5,4.8-10.07,4.8s-10.07-2.15-10.07-4.8c0-.27,.05-.53,.14-.79h.01c.8,2.27,4.94,4,9.92,4s9.13-1.73,9.92-4h.01c.09,.26,.14,.52,.14,.79Z"/><path class="h" d="M321.39,132.35c1.66,1.04,2.64,2.36,2.64,3.8,0,.34-.05,.69-.17,1.02-.49,1.45-1.98,2.73-4.12,3.63-2.14,.92-4.91,1.47-7.95,1.47-6.07,0-11.09-2.21-12.06-5.11-.11-.33-.18-.68-.18-1.02,0-1.44,.99-2.76,2.64-3.8-.3,.45-.47,.94-.47,1.44,0,.28,.05,.54,.15,.8h-.01c-.08,.27-.14,.53-.14,.8,0,2.65,4.51,4.8,10.07,4.8s10.07-2.15,10.07-4.8c0-.27-.04-.53-.14-.79h0c.09-.27,.14-.53,.14-.81,0-.5-.16-.99-.47-1.44Z"/><path class="h" d="M299.9,79.8l2.27,1.24c-.23-.02-.46,.03-.67,.18l-13.95,9.79v1.41l-2.16-1.14v-1.37l14.51-10.12Z"/><polygon class="h" points="300.13 92.67 287.55 98.98 287.55 100.4 285.4 99.38 285.4 97.78 298.08 91.48 298.08 87.23 300.13 86.21 300.13 92.67"/></g></g></g></svg>