<?xml version="1.0" encoding="UTF-8"?><svg xmlns="http://www.w3.org/2000/svg" viewBox="0 0 625.08 189.7"><defs><style>.d{opacity:.3;}.d,.e{fill:#fff;}.d,.e,.f{stroke:#1e2124;}.d,.e,.f,.g{stroke-miterlimit:10;stroke-width:.5px;}.h{fill:#dbdbdb;}.f,.g{fill:none;}.g{stroke:#000;}</style></defs><g id="a"/><g id="b"><g id="c"><g><rect class="e" x=".25" y=".25" width="624.58" height="189.2"/><path class="d" d="M421.59,178.9l-18.28,10.55H221.76l-18.27-10.55,72.79-42.02,.55-.32,6.11-3.54h0l6.22-3.59,6.4-3.7s0,.01,0,0l16.96-9.79,16.46,9.51,6.32,3.64,6.16,3.56,6.06,3.5,1.26,.73,72.79,42.02Z"/><polygon class="e" points="421.59 94.85 312.54 157.81 203.49 94.85 312.54 31.89 421.59 94.85"/><polygon class="h" points="329.25 97.01 305.58 111.06 293.79 104.47 296.21 103.07 304.05 98.53 305.28 99.24 319.15 91.23 327.04 95.75 329.25 97.01"/><g><line class="f" x1="318.56" y1="73.13" x2="307.27" y2="79.65"/><polyline class="e" points="322.12 75.11 329.59 79.42 329.59 82.17 326.96 83.69 305.29 96.2 296.96 91.39 294.33 89.87 294.33 87.12 303.61 81.77"/><polyline class="e" points="294.33 87.12 305.29 93.45 329.59 79.42"/><line class="f" x1="321.02" y1="80.26" x2="321.01" y2="80.26"/><line class="f" x1="296.96" y1="91.39" x2="294.33" y2="92.91"/><line class="f" x1="305.29" y1="93.45" x2="305.29" y2="96.2"/><path class="e" d="M307.27,87.95v-8.99c0-2.09,1.94-7.04,5.24-8.69,3.3-1.65,6.05-1.65,6.05,.55v8.8c1.2,.98,2.39,1.01,3.56,0,0,0,0-7.03,0-8.86s.13-5.97-5.31-5.97-12.86,4.89-13.21,14.31v8.84c1.31,1.01,2.53,1,3.66,0Z"/><polygon class="e" points="329.58 85.21 329.58 94.28 327.04 95.75 305.28 108.31 296.21 103.07 294.33 101.98 294.33 92.92 304.05 98.53 305.28 99.24 319.15 91.23 329.58 85.21"/><line class="f" x1="305.29" y1="108.3" x2="305.29" y2="99.24"/><line class="f" x1="326.96" y1="83.47" x2="329.69" y2="85.05"/></g><polygon class="d" points="421.59 10.79 348.8 52.82 343.11 56.11 336.87 59.71 330.51 63.38 323.9 67.2 321.93 68.33 321.93 68.34 318.5 70.32 312.54 73.76 310.05 72.32 306.59 70.32 300.82 66.99 294.08 63.1 287.64 59.38 281.36 55.75 276.28 52.82 203.49 10.79 221.75 .25 403.33 .25 421.59 10.79"/><ellipse class="g" cx="311.52" cy="96.76" rx="52.67" ry="30.41"/><ellipse class="g" cx="311.52" cy="96.76" rx="60.83" ry="35.12"/><ellipse class="g" cx="311.52" cy="96.76" rx="68.99" ry="39.83"/><path class="g" d="M274.52,135.86c24.71,7.8,55.23,7.21,79.06-1.75h.01"/><path class="g" d="M376.21,121.05h.01c19.48-17.28,16.11-40.63-10.14-55.79-30.13-17.39-78.98-17.39-109.11,0-24.8,14.32-29.19,35.96-13.17,52.87h0"/><path class="g" d="M388.87,75.96c8.98,11.13,10.36,23.79,4.15,35.38h0"/><path class="g" d="M229.18,109.69c-4.89-10.42-3.75-21.58,3.42-31.65"/><path class="g" d="M289.12,144.3h.01c15.6,2.44,32.16,2.28,47.63-.48h.01"/><path class="g" d="M279.12,51.18c21.92-5.19,46.82-4.89,68.4,.91"/></g></g></g></svg>